<svg width="200" height="200" viewBox="0 0 64 64" fill="none" xmlns="http://www.w3.org/2000/svg">
  <rect width="64" height="64" rx="4" fill="#0F0F18"/>
  <!-- Cascadia Code style Curly Braces { } (Code Core) -->
  <path d="M 28 8 L 18 8 C 9 8 9 13 9 20 L 9 28 C 9 32 6 32 6 32 C 9 32 9 32 9 36 L 9 44 C 9 51 9 56 18 56 L 28 56" stroke="#00FFD1" stroke-width="3.5" stroke-linecap="round" stroke-linejoin="round" />
  <path d="M 36 8 L 46 8 C 55 8 55 13 55 20 L 55 28 C 55 32 58 32 58 32 C 55 32 55 32 55 36 L 55 44 C 55 51 55 56 46 56 L 36 56" stroke="#00FFD1" stroke-width="3.5" stroke-linecap="round" stroke-linejoin="round" />
  <!-- Purple AI Spark -->
  <path d="M 32 14 C 32 24 44 32 50 32 C 44 32 32 40 32 50 C 32 40 20 32 14 32 C 20 32 32 24 32 14 Z" fill="#C044FF" />


  <rect width="64" height="64" rx="4" fill="transparent"/>
  <path d="M 24 10 L 18 10 C 9 10 9 13 9 20 L 9 28 C 9 32 6 32 6 32 C 9 32 9 32 9 36 L 9 44 C 9 51 9 54 18 54 L 24 54" stroke="#00FFD1" strokeWidth="3.5" strokeLinecap="round" strokeLinejoin="round" />
  <path d="M 40 10 L 46 10 C 55 10 55 13 55 20 L 55 28 C 55 32 58 32 58 32 C 55 32 55 32 55 36 L 55 44 C 55 51 55 54 46 54 L 40 54" stroke="#00FFD1" strokeWidth="3.5" strokeLinecap="round" strokeLinejoin="round" />
  <path d="M 32 14 C 32 24 44 32 50 32 C 44 32 32 40 32 50 C 32 40 20 32 14 32 C 20 32 32 24 32 14 Z" fill="#C044FF" />
</svg>