<svg width="200" height="200" viewBox="0 0 64 64" fill="none" xmlns="http://www.w3.org/2000/svg">
  <rect width="64" height="64" rx="4" fill="#0F0F18"/>
  <!-- Cascadia Code style Curly Braces { } (Code Core) -->
  <path d="M 26 14 L 19 14 C 13 14 13 18 13 22 L 13 28 C 13 32 10 32 10 32 C 13 32 13 32 13 36 L 13 42 C 13 46 13 50 19 50 L 26 50" stroke="#00FFD1" stroke-width="3.5" stroke-linecap="round" stroke-linejoin="round" />
  <path d="M 38 14 L 45 14 C 51 14 51 18 51 22 L 51 28 C 51 32 54 32 54 32 C 51 32 51 32 51 36 L 51 42 C 51 46 51 50 45 50 L 38 50" stroke="#00FFD1" stroke-width="3.5" stroke-linecap="round" stroke-linejoin="round" />
  <!-- Purple AI Spark -->
  <path d="M 32 16 C 32 26 42 32 48 32 C 42 32 32 38 32 48 C 32 38 22 32 16 32 C 22 32 32 26 32 16 Z" fill="#C044FF" />
</svg>